<mxfile host="app.diagrams.net" modified="2023-04-19T12:54:24.969Z" agent="Mozilla/5.0 (Macintosh; Intel Mac OS X 10_15_7) AppleWebKit/537.36 (KHTML, like Gecko) Chrome/112.0.0.0 Safari/537.36" etag="cvEip8xpy6DNTtF8ahfz" version="21.2.0" type="github">
  <diagram name="ページ1" id="AxbQ5At0_PQGiE8OKbeW">
    <mxGraphModel dx="1114" dy="495" grid="1" gridSize="10" guides="1" tooltips="1" connect="1" arrows="1" fold="1" page="1" pageScale="1" pageWidth="827" pageHeight="1169" math="0" shadow="0">
      <root>
        <mxCell id="0" />
        <mxCell id="1" parent="0" />
        <mxCell id="lLXupaayWdmfuJXw7Odt-6" value="" style="edgeStyle=orthogonalEdgeStyle;rounded=0;orthogonalLoop=1;jettySize=auto;html=1;" edge="1" parent="1" source="lLXupaayWdmfuJXw7Odt-1" target="lLXupaayWdmfuJXw7Odt-2">
          <mxGeometry relative="1" as="geometry" />
        </mxCell>
        <mxCell id="lLXupaayWdmfuJXw7Odt-1" value="開始" style="ellipse;whiteSpace=wrap;html=1;" vertex="1" parent="1">
          <mxGeometry x="139" y="20" width="120" height="60" as="geometry" />
        </mxCell>
        <mxCell id="lLXupaayWdmfuJXw7Odt-7" value="" style="edgeStyle=orthogonalEdgeStyle;rounded=0;orthogonalLoop=1;jettySize=auto;html=1;" edge="1" parent="1" source="lLXupaayWdmfuJXw7Odt-2" target="lLXupaayWdmfuJXw7Odt-3">
          <mxGeometry relative="1" as="geometry" />
        </mxCell>
        <mxCell id="lLXupaayWdmfuJXw7Odt-2" value="標準入力" style="shape=parallelogram;perimeter=parallelogramPerimeter;whiteSpace=wrap;html=1;fixedSize=1;" vertex="1" parent="1">
          <mxGeometry x="139" y="100" width="120" height="60" as="geometry" />
        </mxCell>
        <mxCell id="lLXupaayWdmfuJXw7Odt-13" value="" style="edgeStyle=orthogonalEdgeStyle;rounded=0;orthogonalLoop=1;jettySize=auto;html=1;" edge="1" parent="1" source="lLXupaayWdmfuJXw7Odt-3" target="lLXupaayWdmfuJXw7Odt-8">
          <mxGeometry relative="1" as="geometry" />
        </mxCell>
        <mxCell id="lLXupaayWdmfuJXw7Odt-3" value="標準入力の値を&lt;br&gt;数値に変換" style="rounded=1;whiteSpace=wrap;html=1;" vertex="1" parent="1">
          <mxGeometry x="139" y="190" width="120" height="60" as="geometry" />
        </mxCell>
        <mxCell id="lLXupaayWdmfuJXw7Odt-10" value="YES" style="edgeStyle=orthogonalEdgeStyle;rounded=0;orthogonalLoop=1;jettySize=auto;html=1;" edge="1" parent="1" source="lLXupaayWdmfuJXw7Odt-8" target="lLXupaayWdmfuJXw7Odt-9">
          <mxGeometry x="0.2" y="-20" relative="1" as="geometry">
            <mxPoint as="offset" />
          </mxGeometry>
        </mxCell>
        <mxCell id="lLXupaayWdmfuJXw7Odt-15" value="NO" style="edgeStyle=orthogonalEdgeStyle;rounded=0;orthogonalLoop=1;jettySize=auto;html=1;" edge="1" parent="1" source="lLXupaayWdmfuJXw7Odt-8" target="lLXupaayWdmfuJXw7Odt-14">
          <mxGeometry x="0.1111" y="10" relative="1" as="geometry">
            <mxPoint as="offset" />
          </mxGeometry>
        </mxCell>
        <mxCell id="lLXupaayWdmfuJXw7Odt-8" value="数値が3と5で&lt;br&gt;割り切れるか？" style="rhombus;whiteSpace=wrap;html=1;" vertex="1" parent="1">
          <mxGeometry x="134" y="270" width="130" height="80" as="geometry" />
        </mxCell>
        <mxCell id="lLXupaayWdmfuJXw7Odt-12" value="" style="edgeStyle=orthogonalEdgeStyle;rounded=0;orthogonalLoop=1;jettySize=auto;html=1;" edge="1" parent="1" source="lLXupaayWdmfuJXw7Odt-9" target="lLXupaayWdmfuJXw7Odt-11">
          <mxGeometry relative="1" as="geometry" />
        </mxCell>
        <mxCell id="lLXupaayWdmfuJXw7Odt-9" value="FizzBuzzと表示" style="shape=parallelogram;perimeter=parallelogramPerimeter;whiteSpace=wrap;html=1;fixedSize=1;" vertex="1" parent="1">
          <mxGeometry x="139" y="380" width="120" height="60" as="geometry" />
        </mxCell>
        <mxCell id="lLXupaayWdmfuJXw7Odt-11" value="終了" style="ellipse;whiteSpace=wrap;html=1;" vertex="1" parent="1">
          <mxGeometry x="139" y="490" width="120" height="80" as="geometry" />
        </mxCell>
        <mxCell id="lLXupaayWdmfuJXw7Odt-17" value="YES" style="edgeStyle=orthogonalEdgeStyle;rounded=0;orthogonalLoop=1;jettySize=auto;html=1;" edge="1" parent="1" source="lLXupaayWdmfuJXw7Odt-14" target="lLXupaayWdmfuJXw7Odt-16">
          <mxGeometry x="0.2" y="-15" relative="1" as="geometry">
            <mxPoint as="offset" />
          </mxGeometry>
        </mxCell>
        <mxCell id="lLXupaayWdmfuJXw7Odt-19" value="NO" style="edgeStyle=orthogonalEdgeStyle;rounded=0;orthogonalLoop=1;jettySize=auto;html=1;" edge="1" parent="1" source="lLXupaayWdmfuJXw7Odt-14" target="lLXupaayWdmfuJXw7Odt-18">
          <mxGeometry x="0.2" y="10" relative="1" as="geometry">
            <mxPoint as="offset" />
          </mxGeometry>
        </mxCell>
        <mxCell id="lLXupaayWdmfuJXw7Odt-14" value="数値が3で&lt;br&gt;割り切れるか？" style="rhombus;whiteSpace=wrap;html=1;" vertex="1" parent="1">
          <mxGeometry x="299" y="270" width="130" height="80" as="geometry" />
        </mxCell>
        <mxCell id="lLXupaayWdmfuJXw7Odt-16" value="Fizzと表示" style="shape=parallelogram;perimeter=parallelogramPerimeter;whiteSpace=wrap;html=1;fixedSize=1;" vertex="1" parent="1">
          <mxGeometry x="304" y="380" width="120" height="60" as="geometry" />
        </mxCell>
        <mxCell id="lLXupaayWdmfuJXw7Odt-21" value="YES" style="edgeStyle=orthogonalEdgeStyle;rounded=0;orthogonalLoop=1;jettySize=auto;html=1;" edge="1" parent="1" source="lLXupaayWdmfuJXw7Odt-18" target="lLXupaayWdmfuJXw7Odt-20">
          <mxGeometry x="0.2" y="-15" relative="1" as="geometry">
            <mxPoint as="offset" />
          </mxGeometry>
        </mxCell>
        <mxCell id="lLXupaayWdmfuJXw7Odt-25" value="" style="edgeStyle=orthogonalEdgeStyle;rounded=0;orthogonalLoop=1;jettySize=auto;html=1;" edge="1" parent="1" source="lLXupaayWdmfuJXw7Odt-18" target="lLXupaayWdmfuJXw7Odt-24">
          <mxGeometry relative="1" as="geometry" />
        </mxCell>
        <mxCell id="lLXupaayWdmfuJXw7Odt-18" value="数値が5で&lt;br&gt;割り切れるか？" style="rhombus;whiteSpace=wrap;html=1;" vertex="1" parent="1">
          <mxGeometry x="459" y="270" width="130" height="80" as="geometry" />
        </mxCell>
        <mxCell id="lLXupaayWdmfuJXw7Odt-20" value="Buzzと表示" style="shape=parallelogram;perimeter=parallelogramPerimeter;whiteSpace=wrap;html=1;fixedSize=1;" vertex="1" parent="1">
          <mxGeometry x="464" y="380" width="120" height="60" as="geometry" />
        </mxCell>
        <mxCell id="lLXupaayWdmfuJXw7Odt-22" value="" style="endArrow=classic;html=1;rounded=0;exitX=0.5;exitY=1;exitDx=0;exitDy=0;entryX=1.025;entryY=0.375;entryDx=0;entryDy=0;entryPerimeter=0;" edge="1" parent="1" source="lLXupaayWdmfuJXw7Odt-16" target="lLXupaayWdmfuJXw7Odt-11">
          <mxGeometry width="50" height="50" relative="1" as="geometry">
            <mxPoint x="349" y="510" as="sourcePoint" />
            <mxPoint x="364" y="520" as="targetPoint" />
            <Array as="points">
              <mxPoint x="364" y="520" />
            </Array>
          </mxGeometry>
        </mxCell>
        <mxCell id="lLXupaayWdmfuJXw7Odt-23" value="" style="endArrow=none;html=1;rounded=0;" edge="1" parent="1">
          <mxGeometry width="50" height="50" relative="1" as="geometry">
            <mxPoint x="359" y="520" as="sourcePoint" />
            <mxPoint x="529" y="440" as="targetPoint" />
            <Array as="points">
              <mxPoint x="529" y="520" />
            </Array>
          </mxGeometry>
        </mxCell>
        <mxCell id="lLXupaayWdmfuJXw7Odt-27" value="" style="edgeStyle=orthogonalEdgeStyle;rounded=0;orthogonalLoop=1;jettySize=auto;html=1;" edge="1" parent="1" source="lLXupaayWdmfuJXw7Odt-24" target="lLXupaayWdmfuJXw7Odt-26">
          <mxGeometry relative="1" as="geometry" />
        </mxCell>
        <mxCell id="lLXupaayWdmfuJXw7Odt-24" value="それ以外の数値" style="rhombus;whiteSpace=wrap;html=1;" vertex="1" parent="1">
          <mxGeometry x="620" y="270" width="130" height="80" as="geometry" />
        </mxCell>
        <mxCell id="lLXupaayWdmfuJXw7Odt-26" value="数値と表示" style="shape=parallelogram;perimeter=parallelogramPerimeter;whiteSpace=wrap;html=1;fixedSize=1;" vertex="1" parent="1">
          <mxGeometry x="625" y="380" width="120" height="60" as="geometry" />
        </mxCell>
        <mxCell id="lLXupaayWdmfuJXw7Odt-32" value="" style="endArrow=none;html=1;rounded=0;" edge="1" parent="1">
          <mxGeometry width="50" height="50" relative="1" as="geometry">
            <mxPoint x="530" y="520" as="sourcePoint" />
            <mxPoint x="680" y="440" as="targetPoint" />
            <Array as="points">
              <mxPoint x="680" y="520" />
            </Array>
          </mxGeometry>
        </mxCell>
      </root>
    </mxGraphModel>
  </diagram>
</mxfile>
